Coordinates
version=1
nRows=26
nColumns=22
inDegrees=yes

Units are S.I. units (second, meters, Newtons, ...)
If the header above contains a line with 'inDegrees', this indicates whether rotational values are in degrees (yes) or radians (no).

endheader
time	pelvis_tilt	pelvis_list	pelvis_rotation	pelvis_tx	pelvis_ty	pelvis_tz	hip_flexion_r	hip_adduction_r	hip_rotation_r	knee_angle_r	ankle_angle_r	subtalar_angle_r	hip_flexion_l	hip_adduction_l	hip_rotation_l	knee_angle_l	ankle_angle_l	subtalar_angle_l	lumbar_extension	lumbar_bending	lumbar_rotation
      3.66000000	      1.00118498	      0.46303843	    -19.31843143	      0.31032573	      0.91993378	     -0.29004342	     26.67772312	      3.39261248	     -5.43444651	    -62.57221839	     -4.41035868	     -2.31483035	      1.18203666	     -5.48529655	    -24.32492584	    -20.09754040	     10.31876729	      5.12719414	    -11.30729931	     -4.67852209	     -4.03662753
      3.67000000	      0.94697989	      0.37580883	    -19.76912009	      0.31645527	      0.91968078	     -0.28920816	     27.18134639	      3.30670508	     -6.41223099	    -60.38399662	     -3.63638430	     -2.24219486	      0.54589111	     -5.40398246	    -24.86072376	    -19.79873286	     10.61771811	      5.16496507	    -11.36610352	     -4.59916283	     -4.20452581
      3.68000000	      0.89115881	      0.28977720	    -20.18845948	      0.32261026	      0.91937994	     -0.28828443	     27.55322450	      3.22394708	     -7.39041715	    -57.94068704	     -2.97843672	     -2.18713124	     -0.09487574	     -5.31181871	    -25.34495694	    -19.47657132	     10.86449235	      5.14005832	    -11.42509274	     -4.50790998	     -4.41743700
      3.69000000	      0.82322984	      0.22021694	    -20.57210594	      0.32879089	      0.91897940	     -0.28729725	     27.81632515	      3.11632937	     -8.41447366	    -55.26730240	     -2.38144264	     -2.15206729	     -0.70409731	     -5.20624275	    -25.77981273	    -19.17192124	     11.07479913	      5.03309062	    -11.46679842	     -4.41658967	     -4.62546698
      3.70000000	      0.74999292	      0.15991365	    -20.93258452	      0.33500154	      0.91850645	     -0.28620954	     27.95448309	      3.01300261	     -9.45964763	    -52.35624757	     -1.86541504	     -2.15658002	     -1.30204763	     -5.09118172	    -26.17719110	    -18.86579714	     11.24793391	      4.87277820	    -11.49794951	     -4.32083358	     -4.85473088
      3.71000000	      0.67813779	      0.10480237	    -21.27693981	      0.34125801	      0.91795847	     -0.28495723	     27.96126561	      2.92314898	    -10.54576194	    -49.22194076	     -1.42643063	     -2.19730546	     -1.89796291	     -4.97752582	    -26.55345705	    -18.56911960	     11.41938633	      4.71444086	    -11.51713910	     -4.23137724	     -5.09143840
      3.72000000	      0.60541923	      0.06164666	    -21.60355191	      0.34756776	      0.91732394	     -0.28357035	     27.84686314	      2.84708603	    -11.67206922	    -45.88025765	     -1.05809850	     -2.24962042	     -2.48354348	     -4.86194988	    -26.92634066	    -18.28864042	     11.60805284	      4.61338561	    -11.52265841	     -4.14338550	     -5.33018124
      3.73000000	      0.53198531	      0.02921738	    -21.91523603	      0.35393849	      0.91659750	     -0.28200760	     27.61719624	      2.79674676	    -12.84347103	    -42.35347881	     -0.76304351	     -2.28823612	     -3.06126243	     -4.74936581	    -27.29823567	    -18.02498831	     11.81470058	      4.59063017	    -11.51094777	     -4.06285901	     -5.56867816
      3.74000000	      0.47633354	      0.00872334	    -22.22295067	      0.36037845	      0.91580375	     -0.28024938	     27.26651138	      2.77086242	    -14.06321747	    -38.67058981	     -0.56037347	     -2.31453351	     -3.66393452	     -4.62385503	    -27.65460191	    -17.75094231	     12.03218506	      4.66453977	    -11.50028202	     -4.00165047	     -5.76677894
      3.75000000	      0.39670432	      0.01441896	    -22.49532086	      0.36685963	      0.91485553	     -0.27831994	     26.86198653	      2.77020604	    -15.34080351	    -34.87812073	     -0.43449325	     -2.27732341	     -4.20060550	     -4.51451679	    -28.01817877	    -17.55073727	     12.26779904	      4.76694375	    -11.44328021	     -3.95112384	     -6.01903234
      3.76000000	      0.33600294	      0.04280780	    -22.76738272	      0.37340752	      0.91381970	     -0.27617497	     26.38161477	      2.79204209	    -16.66156423	    -31.03118363	     -0.40059806	     -2.22322289	     -4.76088286	     -4.38011256	    -28.35564988	    -17.33766666	     12.49652937	      4.93275659	    -11.38123130	     -3.93241593	     -6.22996718
      3.77000000	      0.30820823	      0.10069703	    -23.04878160	      0.38001429	      0.91269276	     -0.27379790	     25.84427807	      2.83131158	    -17.98590257	    -27.20495838	     -0.38576329	     -2.15648899	     -5.36101603	     -4.20398788	    -28.66154007	    -17.10257194	     12.72757807	      5.20107289	    -11.32461801	     -3.96022933	     -6.40441982
      3.78000000	      0.22620524	      0.20404229	    -23.29236437	      0.38662242	      0.91135421	     -0.27125040	     25.38226022	      2.87942630	    -19.36154691	    -23.48376617	     -0.47463558	     -2.08306648	     -5.84349982	     -4.04742966	    -28.96116014	    -16.96593261	     12.93919440	      5.39088693	    -11.18325843	     -4.00628833	     -6.62795327
      3.79000000	      0.18661814	      0.32434860	    -23.54294349	      0.39327443	      0.90995009	     -0.26846299	     24.90777748	      2.94188291	    -20.69055099	    -19.94420804	     -0.49608288	     -2.01216525	     -6.37567091	     -3.86124372	    -29.21471521	    -16.81495769	     13.14403885	      5.65381549	    -11.06578986	     -4.09110222	     -6.82603131
      3.80000000	      0.14579792	      0.47648057	    -23.78485942	      0.39995728	      0.90842725	     -0.26548893	     24.50578612	      2.99696027	    -21.96425125	    -16.68341570	     -0.48056383	     -1.95347176	     -6.87835189	     -3.66457914	    -29.43082783	    -16.70625880	     13.32704299	      5.92446454	    -10.92302364	     -4.20356177	     -7.02442672
      3.81000000	      0.12098654	      0.63820104	    -24.01920612	      0.40668619	      0.90683875	     -0.26232761	     24.16779143	      3.04275938	    -23.16187031	    -13.77949742	     -0.38338837	     -1.90349357	     -7.38163033	     -3.47041983	    -29.60463984	    -16.63360206	     13.49203498	      6.21097232	    -10.78409055	     -4.32754973	     -7.22675787
      3.82000000	      0.11261991	      0.79983503	    -24.24130994	      0.41347989	      0.90521390	     -0.25900935	     23.90110606	      3.06748065	    -24.27088570	    -11.29998833	     -0.20514085	     -1.85762038	     -7.88304082	     -3.28990188	    -29.72534010	    -16.61127943	     13.63131325	      6.49976448	    -10.65564893	     -4.44821134	     -7.43349782
      3.83000000	      0.12966628	      0.94759206	    -24.45472034	      0.42034162	      0.90358917	     -0.25553285	     23.70477602	      3.06243129	    -25.29879688	     -9.31587700	      0.04945301	     -1.80739070	     -8.40047816	     -3.13204989	    -29.80335356	    -16.63312421	     13.74947643	      6.79110432	    -10.55743059	     -4.55682366	     -7.65604226
      3.84000000	      0.15940387	      1.08955740	    -24.65362197	      0.42729157	      0.90196112	     -0.25194014	     23.59056084	      3.00942483	    -26.20049704	     -7.85937866	      0.39773324	     -1.75390099	     -8.90165748	     -2.99732430	    -29.81053407	    -16.73223850	     13.81791926	      7.03341688	    -10.46945851	     -4.64572659	     -7.88641527
      3.85000000	      0.24961112	      1.17510078	    -24.85656991	      0.43439920	      0.90044817	     -0.24821293	     23.48604798	      2.92303552	    -27.01617376	     -6.95790288	      0.69099482	     -1.70973712	     -9.49677828	     -2.89539839	    -29.80413759	    -16.83550126	     13.87682595	      7.35190216	    -10.45883276	     -4.67894633	     -8.15545911
      3.86000000	      0.34711456	      1.25652480	    -25.04590592	      0.44162372	      0.89895063	     -0.24438538	     23.46587016	      2.76303635	    -27.68061122	     -6.62533162	      1.07204859	     -1.71953618	    -10.06889083	     -2.81374398	    -29.71819535	    -17.01742593	     13.87503790	      7.57669821	    -10.45254010	     -4.68888957	     -8.45375114
      3.87000000	      0.48385276	      1.29950770	    -25.23429617	      0.44899266	      0.89755628	     -0.24042187	     23.46110819	      2.55346675	    -28.20242774	     -6.81148278	      1.43430128	     -1.83835451	    -10.68123829	     -2.76683285	    -29.59834093	    -17.25317627	     13.82009965	      7.79694229	    -10.49699229	     -4.65503613	     -8.77203708
      3.88000000	      0.64375946	      1.29524116	    -25.42486029	      0.45652275	      0.89626346	     -0.23629435	     23.46191851	      2.31877660	    -28.56268910	     -7.45192820	      1.77142795	     -2.12627332	    -11.32770331	     -2.76374997	    -29.41558138	    -17.53355032	     13.70492188	      8.01046951	    -10.57609514	     -4.56176971	     -9.10265157
      3.89000000	      0.81375772	      1.24327633	    -25.62409302	      0.46423289	      0.89507738	     -0.23194051	     23.44937236	      2.08888731	    -28.79401169	     -8.43750204	      2.05098681	     -2.63254124	    -11.99975369	     -2.81372366	    -29.20765665	    -17.85832680	     13.53038675	      8.21921563	    -10.66870024	     -4.40995906	     -9.43909973
      3.90000000	      0.98450573	      1.13664985	    -25.82437085	      0.47208844	      0.89401006	     -0.22733095	     23.40628322	      1.89421006	    -28.91975493	     -9.66307885	      2.29320048	     -3.27375092	    -12.66677423	     -2.93960440	    -28.93808209	    -18.27674062	     13.28812917	      8.39963488	    -10.77441411	     -4.19597870	     -9.74426107
      3.91000000	      1.14008952	      0.96056069	    -26.04784311	      0.48008757	      0.89308998	     -0.22235558	     23.31201473	      1.79184194	    -28.99384655	    -10.99815323	      2.35781068	     -4.25436578	    -13.33433153	     -3.16538022	    -28.69634170	    -18.77243748	     12.97776020	      8.61231911	    -10.87185988	     -3.90868386	    -10.04568890
